# xmcd
#
# Track frame offsets:
#	150
#	22018
#	39902
#	63514
#	80257
#	95846
#	109585
#	127330
#	144014
#	160097
#	179785
#	198123
#	213892
#	231392
#	248278
#	266521
#	291264
#	306414
#
# Disc length: 4346 seconds
#
# Revision: 0
# Processed by: cddbd v1.5.2PL0 Copyright (c) Steve Scherf et al.
# Submitted via: audiograbber 1.83.01
#
DISCID=fe10f812
DTITLE=Various Artist - Ultimate R&B 2009 [CD 1 of 2) (2009)
DYEAR=2009
DGENRE=R&B
TTITLE0=The Black Eyed Peas - I Gotta Feeling (Album Version)
TTITLE1=Lady Gaga - Poker Face
TTITLE2=Akon feat Colby O'Donis and Kardinal Offishall - Beautiful (Album Version
TTITLE2=)
TTITLE3=A.R. Rahman and The Pussycat Dolls - Jai Ho! (You Are My Destiny)
TTITLE4=Cascada - Evacuate The Dancefloor
TTITLE5=Mariah Carey - I'll Be Lovin' U Long Time (Album Version)
TTITLE6=Jeremih - Birthday Sex (Up-Tempo)
TTITLE7=Kardinal Offishall feat Kerri Hilson - Numba 1 (Tide Is High) (Radio Ma
TTITLE7=in)
TTITLE8=Tinchy Stryder feat N-Dubz - Number 1
TTITLE9=Brutha feat Fabolous - I Can't Hear The Music (Main)
TTITLE10=Colby O'Donis feat Akon - What You Got (Main)
TTITLE11=Kristinia DeBarge - Goodbye (Album Version)
TTITLE12=Paradiso Girls feat Lil Jon - Patron Tequila
TTITLE13=David Rush feat Pitbull, Kevin Rudolph and LMFAO - Shooting Star (Party 
TTITLE13=Rock Mix)
TTITLE14=Blackstreet feat Mya, Mase and Blinky - Take Me There ('I Want You Back'
TTITLE14=Remix Version)
TTITLE15=Will.I.Am - Heartbreaker (Album Version - Explicit)
TTITLE16=Rihanna - Breakin' Dishes (Album Version)
TTITLE17=Wale - Nike Boots
EXTD=
EXTT0=
EXTT1=
EXTT2=
EXTT3=
EXTT4=
EXTT5=
EXTT6=
EXTT7=
EXTT8=
EXTT9=
EXTT10=
EXTT11=
EXTT12=
EXTT13=
EXTT14=
EXTT15=
EXTT16=
EXTT17=
PLAYORDER=
